<svg width="920" height="620" viewBox="0 0 920 620" xmlns="http://www.w3.org/2000/svg" role="img" aria-labelledby="title desc">
  <title id="title">Student studying online illustration</title>
  <desc id="desc">Transparent background illustration of a student studying with a laptop and learning dashboard.</desc>

  <defs>
    <linearGradient id="glow" x1="0" y1="0" x2="1" y2="1">
      <stop offset="0%" stop-color="#38bdf8" stop-opacity="0.22"/>
      <stop offset="100%" stop-color="#4f46e5" stop-opacity="0.14"/>
    </linearGradient>
    <linearGradient id="screen" x1="0" y1="0" x2="1" y2="1">
      <stop offset="0%" stop-color="#e0f2fe"/>
      <stop offset="100%" stop-color="#dbeafe"/>
    </linearGradient>
  </defs>

  <ellipse cx="450" cy="555" rx="280" ry="30" fill="#0f172a" fill-opacity="0.08"/>

  <circle cx="670" cy="160" r="120" fill="url(#glow)"/>
  <circle cx="260" cy="140" r="88" fill="url(#glow)"/>

  <rect x="420" y="260" width="290" height="170" rx="14" fill="#1e293b" fill-opacity="0.9"/>
  <rect x="434" y="274" width="262" height="136" rx="10" fill="url(#screen)"/>
  <rect x="450" y="292" width="120" height="10" rx="5" fill="#94a3b8" fill-opacity="0.55"/>
  <rect x="450" y="312" width="160" height="10" rx="5" fill="#94a3b8" fill-opacity="0.45"/>
  <rect x="450" y="338" width="92" height="52" rx="8" fill="#22c55e" fill-opacity="0.22"/>
  <rect x="550" y="338" width="128" height="12" rx="6" fill="#64748b" fill-opacity="0.42"/>
  <rect x="550" y="358" width="100" height="12" rx="6" fill="#64748b" fill-opacity="0.36"/>

  <rect x="150" y="410" width="520" height="22" rx="11" fill="#334155" fill-opacity="0.24"/>

  <path d="M250 402C250 336 286 287 342 287C398 287 438 336 438 402" fill="#475569" fill-opacity="0.28"/>

  <circle cx="344" cy="236" r="47" fill="#f8d9c8"/>
  <path d="M304 233C307 198 331 176 364 180C383 183 398 198 402 215C381 207 359 208 338 217C327 221 314 228 304 233Z" fill="#334155"/>

  <rect x="302" y="286" width="90" height="112" rx="24" fill="#0f766e" fill-opacity="0.88"/>
  <rect x="285" y="306" width="26" height="90" rx="12" fill="#0f766e" fill-opacity="0.88"/>
  <rect x="383" y="306" width="24" height="84" rx="12" fill="#0f766e" fill-opacity="0.88"/>

  <rect x="252" y="392" width="172" height="20" rx="10" fill="#f8d9c8"/>

  <rect x="190" y="430" width="300" height="26" rx="13" fill="#64748b" fill-opacity="0.35"/>
  <rect x="228" y="454" width="226" height="18" rx="9" fill="#334155" fill-opacity="0.3"/>

  <path d="M467 460L731 460" stroke="#94a3b8" stroke-opacity="0.5" stroke-width="4" stroke-linecap="round"/>
  <circle cx="742" cy="460" r="8" fill="#38bdf8" fill-opacity="0.7"/>
</svg>
